#!OML:ASF I:\golf\golf\golf 2\Subject 1\2002-09-07\Subject1.ASF
:FULLY-SPECIFIED
:DEGREES
234
root 0.543438 10.5798 -4.79993 8.21254 3.80261 -2.91006
lowerback 37.7672 7.96046 4.3511
upperback 17.1298 11.4282 6.87792
thorax -0.182086 5.5218 1.27018
lowerneck -17.2127 -7.21373 -3.98737
upperneck 25.9118 -6.96108 -6.34246
head 11.1854 -4.20552 -2.63299
rclavicle 1.43125e-013 -1.59028e-015
rhumerus 29.6881 -7.26158 -74.8735
rradius 24.9651
rwrist 9.66512
rhand -52.2891 61.7606
rfingers 7.12502
rthumb -24.7846 33.3466
lclavicle 1.43125e-013 -1.59028e-015
lhumerus -38.3957 -33.4145 99.464
lradius 92.7088
lwrist -7.41631
lhand -47.7426 21.12
lfingers 7.12502
lthumb -20.421 50.0662
rfemur -96.3536 -51.0623 39.8176
rtibia 129.959
rfoot -28.3718 19.1652
rtoes -4.69442
lfemur -89.1479 32.1499 -19.8185
ltibia 126.774
lfoot -29.061 -29.4037
ltoes -9.72874
235
root 0.551437 10.5005 -4.78808 8.07931 3.68756 -3.02878
lowerback 38.1632 7.98049 4.41845
upperback 17.1763 11.4822 6.90054
thorax -0.247184 5.54257 1.21567
lowerneck -17.2408 -7.19018 -3.88698
upperneck 25.8263 -6.93496 -6.43581
head 11.1501 -4.19594 -2.67613
rclavicle 1.90833e-014 -1.11319e-014
rhumerus 29.856 -7.38429 -74.9526
rradius 25.0746
rwrist 9.78344
rhand -52.2925 62.2495
rfingers 7.12502
rthumb -24.7878 33.8359
lclavicle 1.90833e-014 -1.11319e-014
lhumerus -38.4753 -33.2084 99.3794
lradius 93.0528
lwrist -7.8173
lhand -47.9549 21.2069
lfingers 7.12502
lthumb -20.6251 50.1311
rfemur -96.9441 -51.5898 39.957
rtibia 130.871
rfoot -28.0574 20.1699
rtoes -1.03884
lfemur -89.6573 32.7047 -19.8467
ltibia 127.549
lfoot -29.384 -29.3049
ltoes -10.5407
236
root 0.559638 10.4186 -4.77764 8.02439 3.68721 -3.29682
lowerback 38.4975 7.92508 4.66345
upperback 17.1504 11.5085 6.93786
thorax -0.342393 5.55761 1.0989
lowerneck -17.2034 -7.18662 -3.79066
upperneck 25.8091 -6.93926 -6.51529
head 11.1279 -4.19786 -2.71777
rclavicle -3.18055e-014 5.88403e-014
rhumerus 29.9021 -7.31341 -74.832
rradius 25.1836
rwrist 9.84253
rhand -52.257 62.6133
rfingers 7.12502
rthumb -24.7539 34.1951
lclavicle -3.18055e-014 5.88403e-014
lhumerus -38.6164 -32.9965 99.3436
lradius 93.2578
lwrist -8.13744
lhand -48.0787 20.6211
lfingers 7.12502
lthumb -20.744 49.5324
rfemur -97.7174 -51.9482 40.5719
rtibia 131.677
rfoot -27.8046 20.4986
rtoes 1.81164
lfemur -90.419 33.2282 -19.8009
ltibia 128.351
lfoot -29.5505 -29.2965
ltoes -11.1627
237
root 0.570216 10.3381 -4.76926 8.03562 3.66515 -3.40239
lowerback 38.7985 7.89532 4.75854
upperback 17.1234 11.5179 6.98129
thorax -0.456532 5.55573 1.0673
lowerneck -17.0592 -7.19511 -3.86574
upperneck 25.6317 -6.94307 -6.52469
head 11.0368 -4.20587 -2.6948
rclavicle -9.54166e-015 7.79236e-014
rhumerus 30.0038 -6.97387 -74.415
rradius 25.2508
rwrist 9.61444
rhand -52.1817 63.0489
rfingers 7.12502
rthumb -24.6817 34.6207
lclavicle -9.54166e-015 7.79236e-014
lhumerus -38.7667 -32.7812 99.3738
lradius 93.4116
lwrist -8.61706
lhand -48.3317 20.6731
lfingers 7.12502
lthumb -20.9871 49.5576
rfemur -98.6202 -52.2017 41.1875
rtibia 132.366
rfoot -27.6383 20.3949
rtoes 3.35333
lfemur -91.1887 33.5493 -19.9547
ltibia 129.103
lfoot -29.4581 -29.3158
ltoes -11.0109
238
root 0.584181 10.2562 -4.75853 8.06459 3.56776 -3.41538
lowerback 38.8771 7.90667 4.73683
upperback 17.254 11.5173 7.05945
thorax -0.357422 5.55128 1.16423
lowerneck -16.9628 -7.19754 -4.05011
upperneck 25.3529 -6.92316 -6.4847
head 10.9258 -4.20753 -2.63169
rclavicle 9.22361e-014 3.97569e-014
rhumerus 30.2296 -6.73713 -74.0299
rradius 25.3055
rwrist 9.77536
rhand -52.3739 63.3359
rfingers 7.12502
rthumb -24.8658 34.933
lclavicle 9.22361e-014 3.97569e-014
lhumerus -38.7004 -32.5421 99.3806
lradius 93.5452
lwrist -9.31434
lhand -48.3635 21.5004
lfingers 7.12502
lthumb -21.0177 50.3815
rfemur -99.5766 -52.5318 41.6796
rtibia 133.045
rfoot -27.2683 20.5998
rtoes 4.34167
lfemur -91.9045 33.8467 -20.2451
ltibia 129.834
lfoot -29.319 -29.2688
ltoes -10.2164
239
root 0.595573 10.1832 -4.74189 7.98454 3.42128 -3.51774
lowerback 38.9766 7.94097 4.76083
upperback 17.4607 11.5535 7.15466
thorax -0.175785 5.56859 1.25174
lowerneck -17.0235 -7.20296 -4.1063
upperneck 25.2674 -6.88992 -6.57487
head 10.9063 -4.20854 -2.64959
rclavicle 1.27222e-014 -1.43125e-014
rhumerus 30.5437 -6.82025 -73.9402
rradius 25.3568
rwrist 10.2385
rhand -52.5242 63.2134
rfingers 7.12502
rthumb -25.0099 34.8305
lclavicle 1.27222e-014 -1.43125e-014
lhumerus -38.5633 -32.3698 99.3484
lradius 93.771
lwrist -9.837
lhand -48.1504 21.9342
lfingers 7.12502
lthumb -20.8129 50.8379
rfemur -100.226 -52.8881 42.1291
rtibia 133.638
rfoot -27.2283 20.5497
rtoes 3.85282
lfemur -92.3845 34.3887 -20.439
ltibia 130.507
lfoot -29.4543 -29.0623
ltoes -9.94018
240
root 0.599049 10.1245 -4.72141 7.76422 3.23474 -3.52145
lowerback 39.3482 8.03934 4.65155
upperback 17.6094 11.637 7.20654
thorax -0.154661 5.59578 1.31431
lowerneck -17.1462 -7.20264 -4.10332
upperneck 25.3607 -6.8591 -6.6405
head 10.9632 -4.20335 -2.67927
rclavicle 3.81667e-014 1.74931e-014
rhumerus 30.7471 -7.21224 -74.1835
rradius 25.615
rwrist 10.6901
rhand -52.3515 63.0624
rfingers 7.12502
rthumb -24.8444 34.6566
lclavicle 3.81667e-014 1.74931e-014
lhumerus -38.5454 -32.3127 99.3072
lradius 94.0238
lwrist -10.1406
lhand -48.0895 21.794
lfingers 7.12502
lthumb -20.7544 50.7041
rfemur -100.47 -53.341 42.2098
rtibia 134.18
rfoot -27.6259 20.4453
rtoes 3.15635
lfemur -92.4633 35.057 -20.6277
ltibia 131.088
lfoot -30.058 -28.5639
ltoes -11.0227
241
root 0.605403 10.0621 -4.70509 7.5658 3.16228 -3.51994
lowerback 39.869 8.02657 4.68169
upperback 17.5762 11.6512 7.16052
thorax -0.18404 5.59315 1.27589
lowerneck -17.1271 -7.18045 -4.11293
upperneck 25.3263 -6.84473 -6.57914
head 10.9497 -4.18986 -2.65128
rclavicle 1.08139e-013 -8.5875e-014
rhumerus 30.8755 -7.48138 -74.3637
rradius 25.8486
rwrist 10.9953
rhand -52.1307 62.9485
rfingers 7.12502
rthumb -24.6328 34.5136
lclavicle 1.08139e-013 -8.5875e-014
lhumerus -38.5493 -32.269 99.2145
lradius 94.1847
lwrist -10.4232
lhand -48.2621 21.7049
lfingers 7.12502
lthumb -20.9202 50.5968
rfemur -100.828 -53.8624 42.3168
rtibia 134.71
rfoot -27.925 20.4554
rtoes 2.66119
lfemur -92.6511 35.5075 -20.789
ltibia 131.722
lfoot -30.4062 -28.2497
ltoes -11.4398
242
root 0.61526 9.99495 -4.69462 7.50676 3.23957 -3.65555
lowerback 40.1153 7.93924 4.84136
upperback 17.5802 11.6138 7.22349
thorax -0.237768 5.57464 1.25823
lowerneck -16.892 -7.16196 -4.11658
upperneck 25.1577 -6.83165 -6.61158
head 10.8405 -4.18482 -2.6416
rclavicle 0 6.04305e-014
rhumerus 30.9127 -7.41085 -74.1942
rradius 25.9294
rwrist 11.0218
rhand -51.9412 63.0571
rfingers 7.12502
rthumb -24.4511 34.5976
lclavicle 0 6.04305e-014
lhumerus -38.6213 -32.1604 99.2274
lradius 94.26
lwrist -10.7329
lhand -48.5441 21.5029
lfingers 7.12502
lthumb -21.1912 50.3647
rfemur -101.532 -54.2826 42.8222
rtibia 135.204
rfoot -27.8738 20.4412
rtoes 2.22909
lfemur -93.2709 35.7426 -20.9318
ltibia 132.423
lfoot -30.4177 -28.0538
ltoes -11.3464
243
root 0.619479 9.93298 -4.68361 7.53063 3.24453 -3.80618
lowerback 40.123 7.98228 4.8217
upperback 17.6571 11.6614 7.39378
thorax -0.196849 5.58682 1.4315
lowerneck -16.7428 -7.15845 -4.14448
upperneck 25.0548 -6.79575 -6.74699
head 10.7709 -4.18472 -2.66873
rclavicle 3.18055e-015 -1.43125e-014
rhumerus 30.9405 -7.16973 -73.7823
rradius 26.0513
rwrist 10.9526
rhand -51.8618 63.1133
rfingers 7.12502
rthumb -24.375 34.6435
lclavicle 3.18055e-015 -1.43125e-014
lhumerus -38.605 -32.0654 99.3462
lradius 94.2392
lwrist -10.9891
lhand -48.532 21.2295
lfingers 7.12502
lthumb -21.1796 50.0926
rfemur -102.364 -54.5403 43.4218
rtibia 135.693
rfoot -27.7109 20.5005
rtoes 1.96113
lfemur -93.9989 36.1824 -21.1889
ltibia 133.063
lfoot -30.7073 -27.6124
ltoes -12.2748
